<svg xmlns="http://www.w3.org/2000/svg" viewBox="0 0 1024 1024">
  <defs>
    <linearGradient id="c2t" x1="0" y1="0" x2="1" y2="0">
      <stop offset="0" stop-color="#5FD8C8" stop-opacity="0.95"/>
      <stop offset="1" stop-color="#D9D7FF" stop-opacity="0.25"/>
    </linearGradient>
    <linearGradient id="c2h" x1="0" y1="0" x2="1" y2="1">
      <stop offset="0" stop-color="#EAF9F6"/><stop offset="1" stop-color="#B6E7E2"/>
    </linearGradient>
  </defs>
  <rect width="1024" height="1024" rx="228" fill="#0D1417"/>
  <path d="M 588 486 C 700 430 660 600 760 560 C 850 524 810 690 900 700" fill="none" stroke="url(#c2t)" stroke-width="26" stroke-linecap="round"/>
  <g fill="#B6E7E2" opacity="0.9">
    <circle cx="646" cy="452" r="12"/><circle cx="712" cy="584" r="9"/>
    <circle cx="808" cy="522" r="11"/><circle cx="856" cy="656" r="8"/>
    <circle cx="930" cy="718" r="10"/>
  </g>
  <g transform="rotate(30 480 560)">
    <rect x="452" y="206" width="56" height="252" rx="28" fill="url(#c2h)"/>
    <rect x="408" y="470" width="200" height="36" rx="18" fill="#5FD8C8"/>
    <g stroke="#B6E7E2" stroke-width="16" stroke-linecap="round">
      <line x1="424" y1="540" x2="424" y2="716"/>
      <line x1="472" y1="548" x2="472" y2="730"/>
      <line x1="520" y1="556" x2="520" y2="736"/>
      <line x1="568" y1="548" x2="568" y2="730"/>
    </g>
  </g>
</svg>